<svg width="34" height="34" viewBox="0 0 34 34" fill="none" xmlns="http://www.w3.org/2000/svg">
<circle cx="17" cy="17" r="17" fill="#A747ED"/>
<path d="M18.5333 14.6484L17.171 13.7748C17.9397 13.3269 18.4743 13.0066 18.8421 12.7229C19.2249 12.4276 19.4333 12.1674 19.5375 11.8374C19.6404 11.5119 19.6397 11.1241 19.6208 10.5822C19.6179 10.4993 19.6146 10.4125 19.6111 10.3216C19.5925 9.8371 19.5693 9.23415 19.5842 8.45599L21.0384 9.34635C21.0291 9.9024 21.0373 10.3719 21.0444 10.7733C21.0481 10.9847 21.0514 11.1771 21.0517 11.3535C21.0527 11.8748 21.0268 12.2567 20.9092 12.5877C20.7924 12.9166 20.5829 13.2006 20.2059 13.5207C19.8327 13.8374 19.2985 14.1869 18.5333 14.6484Z" fill="white" stroke="white" stroke-width="0.119298" stroke-miterlimit="2.61313"/>
<path d="M21.1212 16.2837L19.7589 15.4101C20.5276 14.9622 21.0622 14.6419 21.43 14.3582C21.8128 14.0629 22.0212 13.8027 22.1254 13.4727C22.2283 13.1472 22.2276 12.7594 22.2087 12.2175C22.2058 12.1346 22.2025 12.0478 22.199 11.9569C22.1804 11.4724 22.1572 10.8694 22.1721 10.0913L23.6263 10.9816C23.617 11.5377 23.6252 12.0071 23.6323 12.4086C23.636 12.6199 23.6393 12.8124 23.6396 12.9888C23.6406 13.5101 23.6147 13.8919 23.4971 14.223C23.3803 14.5518 23.1708 14.8359 22.7937 15.1559C22.4206 15.4727 21.8864 15.8222 21.1212 16.2837Z" fill="white" stroke="white" stroke-width="0.119298" stroke-miterlimit="2.61313"/>
<path d="M12.7956 10.7733C12.8026 10.3719 12.8108 9.9024 12.8015 9.34635L14.2557 8.45599C14.2706 9.23415 14.2474 9.83709 14.2288 10.3216C14.2253 10.4125 14.222 10.4993 14.2191 10.5822C14.2002 11.1241 14.1995 11.5119 14.3024 11.8374C14.4067 12.1674 14.615 12.4276 14.9979 12.7229C15.3657 13.0066 15.9002 13.3269 16.669 13.7748L15.3067 14.6484C14.5414 14.1869 14.0072 13.8374 13.6341 13.5207C13.257 13.2006 13.0476 12.9166 12.9307 12.5877C12.8131 12.2567 12.7873 11.8748 12.7882 11.3535C12.7885 11.1771 12.7919 10.9847 12.7956 10.7733Z" fill="white" stroke="white" stroke-width="0.119298" stroke-miterlimit="2.61313"/>
<path d="M10.2077 12.4086C10.2147 12.0071 10.2229 11.5377 10.2136 10.9816L11.6678 10.0913C11.6827 10.8694 11.6595 11.4724 11.6409 11.9569C11.6374 12.0478 11.6341 12.1346 11.6312 12.2175C11.6123 12.7594 11.6116 13.1472 11.7145 13.4727C11.8188 13.8027 12.0271 14.0629 12.41 14.3582C12.7778 14.6419 13.3123 14.9622 14.0811 15.4101L12.7188 16.2837C11.9536 15.8222 11.4194 15.4727 11.0462 15.1559C10.6692 14.8359 10.4597 14.5518 10.3428 14.223C10.2252 13.8919 10.1994 13.5101 10.2003 12.9888C10.2006 12.8124 10.204 12.6199 10.2077 12.4086Z" fill="white" stroke="white" stroke-width="0.119298" stroke-miterlimit="2.61313"/>
<path d="M21.0384 24.0572L19.5842 24.9475C19.5693 24.1694 19.5925 23.5664 19.6111 23.0819C19.6146 22.991 19.6179 22.9042 19.6208 22.8213C19.6397 22.2794 19.6404 21.8916 19.5375 21.5661C19.4333 21.2361 19.2249 20.9759 18.8421 20.6806C18.4743 20.3969 17.9397 20.0766 17.171 19.6287L18.5333 18.7551C19.2985 19.2166 19.8327 19.5661 20.2059 19.8828C20.5829 20.2029 20.7924 20.4869 20.9092 20.8158C21.0268 21.1468 21.0527 21.5287 21.0517 22.05C21.0514 22.2264 21.0481 22.4188 21.0444 22.6302C21.0373 23.0316 21.0291 23.5011 21.0384 24.0572Z" fill="white" stroke="white" stroke-width="0.119298" stroke-miterlimit="2.61313"/>
<path d="M23.6263 22.4218L22.1721 23.3122C22.1572 22.534 22.1804 21.9311 22.199 21.4465C22.2025 21.3556 22.2058 21.2689 22.2087 21.1859C22.2276 20.644 22.2283 20.2563 22.1254 19.9307C22.0212 19.6008 21.8128 19.3405 21.43 19.0452C21.0622 18.7616 20.5276 18.4413 19.7589 17.9933L21.1212 17.1197C21.8864 17.5812 22.4206 17.9307 22.7937 18.2475C23.1708 18.5676 23.3803 18.8516 23.4971 19.1804C23.6147 19.5115 23.6406 19.8933 23.6396 20.4147C23.6393 20.591 23.636 20.7835 23.6323 20.9948C23.6252 21.3963 23.617 21.8658 23.6263 22.4218Z" fill="white" stroke="white" stroke-width="0.119298" stroke-miterlimit="2.61313"/>
<path d="M16.669 19.6287C15.9002 20.0766 15.3657 20.3969 14.9979 20.6806C14.615 20.9759 14.4067 21.2361 14.3024 21.5661C14.1995 21.8916 14.2002 22.2794 14.2191 22.8213C14.222 22.9042 14.2253 22.991 14.2288 23.0819C14.2474 23.5664 14.2706 24.1694 14.2557 24.9475L12.8015 24.0572C12.8108 23.5011 12.8026 23.0316 12.7956 22.6302C12.7919 22.4188 12.7885 22.2264 12.7882 22.05C12.7873 21.5287 12.8131 21.1468 12.9307 20.8158C13.0476 20.4869 13.257 20.2029 13.6341 19.8828C14.0072 19.5661 14.5414 19.2166 15.3067 18.7551L16.669 19.6287Z" fill="white" stroke="white" stroke-width="0.119298" stroke-miterlimit="2.61313"/>
<path d="M14.0811 17.9933C13.3123 18.4413 12.7778 18.7616 12.41 19.0452C12.0271 19.3405 11.8188 19.6008 11.7145 19.9307C11.6116 20.2563 11.6123 20.644 11.6312 21.1859C11.6341 21.2689 11.6374 21.3556 11.6409 21.4465C11.6595 21.9311 11.6827 22.534 11.6678 23.3122L10.2136 22.4218C10.2229 21.8658 10.2147 21.3963 10.2077 20.9948C10.204 20.7835 10.2006 20.591 10.2003 20.4147C10.1994 19.8933 10.2252 19.5115 10.3428 19.1804C10.4597 18.8516 10.6692 18.5676 11.0462 18.2475C11.4194 17.9307 11.9536 17.5812 12.7188 17.1197L14.0811 17.9933Z" fill="white" stroke="white" stroke-width="0.119298" stroke-miterlimit="2.61313"/>
</svg>
